<svg xmlns="http://www.w3.org/2000/svg" viewBox="0 0 48 48" width="48" height="48">
  <defs>
    <linearGradient id="lg" x1="0" y1="0" x2="48" y2="48" gradientUnits="userSpaceOnUse">
      <stop offset="0%" stop-color="#0a5470"/>
      <stop offset="100%" stop-color="#00394f"/>
    </linearGradient>
    <linearGradient id="mk" x1="0" y1="0" x2="48" y2="48" gradientUnits="userSpaceOnUse">
      <stop offset="0%" stop-color="#3fb6d6"/>
      <stop offset="100%" stop-color="#ffffff"/>
    </linearGradient>
  </defs>
  <path d="M24 2.5L43 9.7V21.8C43 33.4 32 43.8 24 47.5C16 43.8 5 33.4 5 21.8V9.7L24 2.5Z" fill="url(#lg)"/>
  <rect x="16.5" y="16.5" width="15" height="15" rx="3.5" fill="none" stroke="url(#mk)" stroke-width="2.4"/>
  <circle cx="24" cy="24" r="3" fill="url(#mk)"/>
  <path d="M24 19.5V11M24 28.5V37M19.5 24H11M28.5 24H37" stroke="url(#mk)" stroke-width="2" stroke-linecap="round"/>
  <circle cx="24" cy="11" r="2.2" fill="url(#mk)"/>
  <circle cx="24" cy="37" r="2.2" fill="url(#mk)"/>
  <circle cx="11" cy="24" r="2.2" fill="url(#mk)"/>
  <circle cx="37" cy="24" r="2.2" fill="url(#mk)"/>
</svg>
